<?xml version="1.0" encoding="UTF-8"?>
<svg xmlns="http://www.w3.org/2000/svg" viewBox="0 0 960 640" width="960" height="640" role="img" aria-label="Schema Diff overall layout wireframe">
  <rect width="960" height="640" fill="#0f172a"/>
  <rect x="0" y="0" width="960" height="32" fill="#1e293b" stroke="#334155"/>
  <text x="16" y="21" fill="#94a3b8" font-family="system-ui,sans-serif" font-size="12">Schema Diff - TitleBar + Help</text>
  <rect x="0" y="32" width="960" height="40" fill="#1e293b" stroke="#334155"/>
  <g transform="translate(320,44)">
    <text x="0" y="16" fill="#3b82f6" font-size="12" font-weight="600" font-family="system-ui">Compare</text>
    <text x="72" y="16" fill="#64748b" font-size="14" font-family="system-ui">’</text>
    <text x="92" y="16" fill="#64748b" font-size="12" font-family="system-ui">Plan</text>
    <text x="140" y="16" fill="#64748b" font-size="14" font-family="system-ui">’</text>
    <text x="160" y="16" fill="#64748b" font-size="12" font-family="system-ui">Review / Deploy</text>
  </g>
  <rect x="48" y="88" width="864" height="72" rx="8" fill="#1e293b" stroke="#334155"/>
  <text x="64" y="112" fill="#64748b" font-size="10" font-family="system-ui">ENDPOINTS BAR (max-w-4xl mx-auto)</text>
  <rect x="64" y="120" width="400" height="28" rx="4" fill="#0f172a" stroke="#475569"/>
  <rect x="480" y="120" width="400" height="28" rx="4" fill="#0f172a" stroke="#475569"/>
  <rect x="48" y="176" width="864" height="48" rx="8" fill="#1e293b" stroke="#334155"/>
  <text x="64" y="206" fill="#64748b" font-size="10" font-family="system-ui">TABLES + ACTION BAR (Compare | Generate plan | Copy | Export)</text>
  <rect x="48" y="240" width="864" height="200" rx="8" fill="#1e293b" stroke="#334155"/>
  <text x="64" y="268" fill="#94a3b8" font-size="11" font-family="system-ui">Scroll: Diff cards / Plan panel / Deploy panel (stacked)</text>
  <rect x="64" y="280" width="832" height="64" rx="4" fill="#0f172a" stroke="#475569"/>
  <rect x="64" y="356" width="832" height="64" rx="4" fill="#0f172a" stroke="#475569"/>
  <rect x="0" y="600" width="960" height="40" fill="#0f172a" stroke="#334155"/>
  <text x="16" y="625" fill="#64748b" font-size="11" font-family="system-ui">StatusBar</text>
</svg>
