<svg xmlns="http://www.w3.org/2000/svg" viewBox="0 0 960 600" role="img" aria-labelledby="title desc">
  <title id="title">Table Workspace theme preview</title>
  <desc id="desc">A navy database workspace with blue navigation, layered panels, a data grid, and amber pending changes.</desc>
  <defs>
    <linearGradient id="canvas" x1="0" y1="0" x2="1" y2="1">
      <stop stop-color="#111827"/>
      <stop offset="1" stop-color="#0b1220"/>
    </linearGradient>
    <filter id="shadow" x="-20%" y="-20%" width="140%" height="140%">
      <feDropShadow dx="0" dy="8" stdDeviation="12" flood-color="#000000" flood-opacity=".28"/>
    </filter>
  </defs>
  <rect width="960" height="600" rx="24" fill="url(#canvas)"/>
  <rect x="28" y="28" width="190" height="544" rx="14" fill="#111827" stroke="#374151" filter="url(#shadow)"/>
  <circle cx="56" cy="60" r="8" fill="#34d399"/>
  <rect x="76" y="51" width="108" height="10" rx="5" fill="#d1d5db"/>
  <rect x="48" y="86" width="150" height="30" rx="7" fill="#0b1220" stroke="#4b5563"/>
  <rect x="44" y="146" width="158" height="42" rx="8" fill="#1d4ed8" fill-opacity=".42"/>
  <rect x="62" y="160" width="112" height="10" rx="5" fill="#93c5fd"/>
  <rect x="58" y="226" width="118" height="8" rx="4" fill="#6b7280"/>
  <rect x="58" y="260" width="132" height="10" rx="5" fill="#9ca3af"/>
  <rect x="76" y="294" width="112" height="36" rx="7" fill="#1d4ed8" fill-opacity=".34"/>
  <rect x="92" y="307" width="72" height="9" rx="4.5" fill="#d1d5db"/>

  <rect x="244" y="28" width="688" height="544" rx="14" fill="#182231" stroke="#374151" filter="url(#shadow)"/>
  <path d="M258 28h660a14 14 0 0 1 14 14v58H244V42a14 14 0 0 1 14-14Z" fill="#202b3a"/>
  <rect x="274" y="55" width="208" height="12" rx="6" fill="#f3f4f6"/>
  <rect x="768" y="50" width="132" height="28" rx="7" fill="#111827" stroke="#4b5563"/>

  <rect x="264" y="122" width="648" height="48" rx="9" fill="#111827"/>
  <rect x="278" y="130" width="92" height="32" rx="7" fill="#1d4ed8" fill-opacity=".45"/>
  <rect x="302" y="141" width="44" height="9" rx="4.5" fill="#93c5fd"/>
  <rect x="402" y="141" width="64" height="9" rx="4.5" fill="#d1d5db"/>
  <rect x="508" y="141" width="38" height="9" rx="4.5" fill="#d1d5db"/>

  <rect x="264" y="188" width="648" height="48" fill="#182231"/>
  <rect x="284" y="204" width="70" height="10" rx="5" fill="#d1d5db"/>
  <rect x="378" y="198" width="218" height="28" rx="7" fill="#0b1220" stroke="#4b5563"/>
  <rect x="622" y="198" width="82" height="28" rx="7" fill="#111827" stroke="#4b5563"/>
  <rect x="808" y="198" width="82" height="28" rx="7" fill="#111827" stroke="#4b5563"/>

  <rect x="264" y="236" width="648" height="240" fill="#111827" stroke="#374151"/>
  <rect x="264" y="236" width="648" height="38" fill="#202b3a"/>
  <path d="M264 274h648M264 322h648M264 370h648M264 418h648" stroke="#374151"/>
  <path d="M354 236v240M496 236v240M648 236v240" stroke="#263244"/>
  <g fill="#9ca3af">
    <rect x="286" y="250" width="42" height="8" rx="4"/>
    <rect x="376" y="250" width="66" height="8" rx="4"/>
    <rect x="518" y="250" width="72" height="8" rx="4"/>
    <rect x="670" y="250" width="102" height="8" rx="4"/>
  </g>
  <g fill="#d1d5db">
    <rect x="286" y="294" width="30" height="8" rx="4"/><rect x="376" y="294" width="56" height="8" rx="4"/><rect x="518" y="294" width="44" height="8" rx="4"/><rect x="670" y="294" width="126" height="8" rx="4"/>
    <rect x="286" y="342" width="30" height="8" rx="4"/><rect x="376" y="342" width="58" height="8" rx="4"/><rect x="518" y="342" width="42" height="8" rx="4"/><rect x="670" y="342" width="126" height="8" rx="4"/>
    <rect x="286" y="390" width="30" height="8" rx="4"/><rect x="518" y="390" width="48" height="8" rx="4"/><rect x="670" y="390" width="126" height="8" rx="4"/>
  </g>
  <rect x="366" y="378" width="112" height="32" rx="6" fill="#3b2f10" stroke="#f59e0b"/>
  <rect x="382" y="390" width="78" height="8" rx="4" fill="#fbbf24"/>

  <rect x="264" y="496" width="648" height="56" rx="9" fill="#30240e" stroke="#b7791f"/>
  <circle cx="294" cy="524" r="10" fill="#f59e0b"/>
  <rect x="318" y="512" width="132" height="11" rx="5.5" fill="#f3f4f6"/>
  <rect x="318" y="532" width="184" height="7" rx="3.5" fill="#9ca3af"/>
  <rect x="714" y="509" width="76" height="30" rx="7" fill="#111827" stroke="#60a5fa"/>
  <rect x="802" y="509" width="88" height="30" rx="7" fill="#2563eb"/>
</svg>
