<?xml version="1.0" encoding="UTF-8"?>
<svg xmlns="http://www.w3.org/2000/svg" viewBox="0 0 640 560" width="640" height="560" role="img" aria-label="Step 5 Preview and Execute screen">
  <rect width="640" height="560" rx="8" fill="#0f172a" stroke="#334155"/>
  <rect width="640" height="28" fill="#1e293b" stroke="#334155"/>
  <text x="12" y="18" fill="#64748b" font-size="10" font-family="system-ui">Data Transfer</text>
  <rect y="28" width="640" height="44" fill="#1e293b" stroke="#334155"/>
  <text x="92" y="54" fill="#64748b" font-size="10" font-family="system-ui">Endpoints</text>
  <text x="168" y="54" fill="#64748b" font-size="10" font-family="system-ui">Setup</text>
  <text x="230" y="54" fill="#64748b" font-size="10" font-family="system-ui">Objects</text>
  <text x="298" y="54" fill="#64748b" font-size="10" font-family="system-ui">Mapping</text>
  <circle cx="366" cy="50" r="10" fill="#3b82f6"/><text x="362" y="54" fill="#fff" font-size="8">5</text>
  <text x="382" y="54" fill="#60a5fa" font-size="10" font-weight="600" font-family="system-ui">Preview</text>
  <text x="445" y="54" fill="#64748b" font-size="10" font-family="system-ui">Result</text>
  <rect x="32" y="92" width="576" height="108" rx="6" fill="#1e293b" stroke="#334155"/>
  <text x="44" y="110" fill="#64748b" font-size="9" font-family="system-ui">users -&gt; users | Copy DDL</text>
  <rect x="44" y="118" width="552" height="72" rx="4" fill="#0f172a" stroke="#475569"/>
  <text x="52" y="136" fill="#64748b" font-size="9" font-family="ui-monospace, monospace">CREATE TABLE users (</text>
  <text x="60" y="152" fill="#64748b" font-size="9" font-family="ui-monospace, monospace">  id serial PRIMARY KEY,</text>
  <text x="60" y="168" fill="#64748b" font-size="9" font-family="ui-monospace, monospace">  email varchar(255) NOT NULL</text>
  <rect x="32" y="212" width="576" height="40" rx="6" fill="#1e293b" stroke="#334155"/>
  <text x="44" y="236" fill="#cbd5e1" font-size="10" font-family="system-ui">orders -&gt; orders | insert | ~1,240 rows</text>
  <rect x="32" y="260" width="576" height="40" rx="6" fill="#1e293b" stroke="#334155"/>
  <text x="44" y="284" fill="#cbd5e1" font-size="10" font-family="system-ui">products -&gt; products | insert | ~86 rows</text>
  <rect y="500" width="640" height="36" fill="#1e293b" stroke="#334155"/>
  <text x="16" y="522" fill="#64748b" font-size="10" font-family="system-ui">&lt; Back</text>
  <rect x="480" y="508" width="144" height="24" rx="4" fill="#3b82f6"/>
  <text x="508" y="524" fill="#fff" font-size="10" font-weight="600" font-family="system-ui">Execute transfer</text>
  <rect y="536" width="640" height="24" fill="#0f172a" stroke="#334155"/>
</svg>
