<?xml version="1.0" encoding="UTF-8"?>
<svg xmlns="http://www.w3.org/2000/svg" viewBox="0 0 1400 900" width="1400" height="900">
  <defs>
    <filter id="shadow" x="-20%" y="-20%" width="140%" height="140%">
      <feDropShadow dx="0" dy="2" stdDeviation="4" flood-color="#000" flood-opacity="0.2"/>
    </filter>
  </defs>
  
  <!-- 背景 -->
  <rect width="1400" height="900" fill="#0f172a"/>
  
  <!-- 标题栏 -->
  <rect width="1400" height="40" fill="#1e293b"/>
  <circle cx="20" cy="20" r="6" fill="#ef4444"/>
  <circle cx="40" cy="20" r="6" fill="#fbbf24"/>
  <circle cx="60" cy="20" r="6" fill="#22c55e"/>
  <circle cx="100" cy="20" r="4" fill="#22c55e"/>
  <text x="112" y="25" fill="#94a3b8" font-family="Inter, sans-serif" font-size="12">主数据库</text>
  <text x="600" y="25" text-anchor="middle" fill="#94a3b8" font-family="Inter, sans-serif" font-size="13">主数据库 - PostgreSQL - DataZen</text>
  
  <!-- 工具栏 -->
  <rect y="40" width="1400" height="48" fill="#1e293b"/>
  <rect y="87" width="1400" height="1" fill="#334155"/>
  
  <!-- 工具栏按钮 -->
  <rect x="16" y="48" width="36" height="32" rx="6" fill="#0f172a" stroke="#334155" stroke-width="1"/>
  <path d="M34 64 A6 6 0 1 1 34 52" fill="none" stroke="#94a3b8" stroke-width="1.5"/>
  
  <rect x="60" y="48" width="100" height="32" rx="6" fill="#3b82f6" filter="url(#shadow)"/>
  <text x="110" y="69" text-anchor="middle" fill="#ffffff" font-family="Inter, sans-serif" font-size="12" font-weight="500">+ 新建查询</text>
  
  <!-- 搜索框 -->
  <rect x="428" y="48" width="280" height="32" rx="6" fill="#0f172a" stroke="#334155" stroke-width="1"/>
  <text x="452" y="69" fill="#64748b" font-family="Inter, sans-serif" font-size="12">搜索表、视图...</text>
  
  <!-- 左侧边栏 -->
  <rect y="88" width="280" height="812" fill="#1e293b"/>
  <rect x="280" y="88" width="1" height="812" fill="#334155"/>
  
  <!-- 数据库选择器 -->
  <rect x="8" y="96" width="264" height="40" rx="6" fill="#0f172a" stroke="#334155" stroke-width="1"/>
  <text x="24" y="122" fill="#f1f5f9" font-family="Inter, sans-serif" font-size="13">myapp_production</text>
  
  <!-- 结构树 -->
  <text x="16" y="160" fill="#64748b" font-family="Inter, sans-serif" font-size="11" font-weight="600">TABLES (12)</text>
  
  <!-- users 表选中 -->
  <rect x="8" y="168" width="264" height="32" rx="6" fill="#334155"/>
  <text x="48" y="189" fill="#f1f5f9" font-family="Inter, sans-serif" font-size="13">users</text>
  <text x="240" y="189" text-anchor="end" fill="#64748b" font-family="Inter, sans-serif" font-size="11">1.2M</text>
  
  <!-- 主内容区域 -->
  <!-- 标签页栏 -->
  <rect x="280" y="88" width="1120" height="40" fill="#1e293b"/>
  <rect x="280" y="127" width="1120" height="1" fill="#334155"/>
  
  <!-- 结构标签页 -->
  <rect x="280" y="88" width="100" height="40" fill="#1e293b"/>
  <text x="330" y="113" text-anchor="middle" fill="#94a3b8" font-family="Inter, sans-serif" font-size="13">结构</text>
  
  <!-- 数据标签页 (选中) -->
  <rect x="380" y="88" width="100" height="40" fill="#0f172a"/>
  <rect x="380" y="126" width="100" height="1" fill="#3b82f6"/>
  <text x="430" y="113" text-anchor="middle" fill="#f1f5f9" font-family="Inter, sans-serif" font-size="13">数据</text>
  
  <!-- 索引标签页 -->
  <rect x="480" y="88" width="100" height="40" fill="#1e293b"/>
  <text x="530" y="113" text-anchor="middle" fill="#94a3b8" font-family="Inter, sans-serif" font-size="13">索引</text>
  
  <!-- 外键标签页 -->
  <rect x="580" y="88" width="100" height="40" fill="#1e293b"/>
  <text x="630" y="113" text-anchor="middle" fill="#94a3b8" font-family="Inter, sans-serif" font-size="13">外键</text>
  
  <!-- DDL标签页 -->
  <rect x="680" y="88" width="100" height="40" fill="#1e293b"/>
  <text x="730" y="113" text-anchor="middle" fill="#94a3b8" font-family="Inter, sans-serif" font-size="13">DDL</text>
  
  <!-- 数据工具栏 -->
  <rect x="296" y="144" width="1080" height="48" fill="#0f172a" stroke="#334155" stroke-width="1" rx="6"/>
  
  <!-- 刷新按钮 -->
  <rect x="304" y="152" width="36" height="32" rx="6" fill="#334155"/>
  <path d="M322 168 A6 6 0 1 1 322 156" fill="none" stroke="#94a3b8" stroke-width="1.5"/>
  
  <!-- 新增行 -->
  <rect x="348" y="152" width="80" height="32" rx="6" fill="#3b82f6"/>
  <text x="388" y="173" text-anchor="middle" fill="#ffffff" font-family="Inter, sans-serif" font-size="12" font-weight="500">+ 新增</text>
  
  <!-- 删除 -->
  <rect x="440" y="152" width="60" height="32" rx="6" fill="#334155"/>
  <text x="470" y="173" text-anchor="middle" fill="#ef4444" font-family="Inter, sans-serif" font-size="12">删除</text>
  
  <!-- 分隔线 -->
  <rect x="516" y="156" width="1" height="24" fill="#334155"/>
  
  <!-- 筛选 -->
  <rect x="532" y="152" width="60" height="32" rx="6" fill="#334155"/>
  <text x="562" y="173" text-anchor="middle" fill="#94a3b8" font-family="Inter, sans-serif" font-size="12">筛选</text>
  
  <!-- 排序 -->
  <rect x="604" y="152" width="60" height="32" rx="6" fill="#334155"/>
  <text x="634" y="173" text-anchor="middle" fill="#94a3b8" font-family="Inter, sans-serif" font-size="12">排序</text>
  
  <!-- 导出 -->
  <rect x="676" y="152" width="60" height="32" rx="6" fill="#334155"/>
  <text x="706" y="173" text-anchor="middle" fill="#94a3b8" font-family="Inter, sans-serif" font-size="12">导出</text>
  
  <!-- 分页控制 -->
  <text x="900" y="173" fill="#94a3b8" font-family="Inter, sans-serif" font-size="12">每页:</text>
  <rect x="940" y="152" width="60" height="32" rx="6" fill="#334155"/>
  <text x="970" y="173" text-anchor="middle" fill="#f1f5f9" font-family="Inter, sans-serif" font-size="12">50</text>
  
  <text x="1020" y="173" fill="#94a3b8" font-family="Inter, sans-serif" font-size="12">行 1-50 / 1,200,000</text>
  
  <!-- 数据表格 -->
  <rect x="296" y="208" width="1080" height="40" fill="#1e293b"/>
  <rect x="296" y="247" width="1080" height="1" fill="#334155"/>
  
  <!-- 表头 -->
  <text x="320" y="233" fill="#94a3b8" font-family="Inter, sans-serif" font-size="12" font-weight="500">id</text>
  <text x="400" y="233" fill="#94a3b8" font-family="Inter, sans-serif" font-size="12" font-weight="500">email</text>
  <text x="600" y="233" fill="#94a3b8" font-family="Inter, sans-serif" font-size="12" font-weight="500">name</text>
  <text x="760" y="233" fill="#94a3b8" font-family="Inter, sans-serif" font-size="12" font-weight="500">status</text>
  <text x="900" y="233" fill="#94a3b8" font-family="Inter, sans-serif" font-size="12" font-weight="500">created_at</text>
  <text x="1100" y="233" fill="#94a3b8" font-family="Inter, sans-serif" font-size="12" font-weight="500">updated_at</text>
  
  <!-- 数据行 -->
  <rect x="296" y="248" width="1080" height="44" fill="#0f172a"/>
  <rect x="296" y="291" width="1080" height="1" fill="#334155"/>
  <text x="320" y="275" fill="#f1f5f9" font-family="JetBrains Mono, monospace" font-size="13">1</text>
  <text x="400" y="275" fill="#3b82f6" font-family="JetBrains Mono, monospace" font-size="13">zhangsan@example.com</text>
  <text x="600" y="275" fill="#f1f5f9" font-family="Inter, sans-serif" font-size="13">张三</text>
  <rect x="760" y="260" width="56" height="22" rx="4" fill="#22c55e" opacity="0.2"/>
  <text x="788" y="276" text-anchor="middle" fill="#22c55e" font-family="Inter, sans-serif" font-size="11">active</text>
  <text x="900" y="275" fill="#64748b" font-family="JetBrains Mono, monospace" font-size="12">2024-01-15 09:30:22</text>
  
  <rect x="296" y="292" width="1080" height="44" fill="#0f172a"/>
  <rect x="296" y="335" width="1080" height="1" fill="#334155"/>
  <text x="320" y="319" fill="#f1f5f9" font-family="JetBrains Mono, monospace" font-size="13">2</text>
  <text x="400" y="319" fill="#3b82f6" font-family="JetBrains Mono, monospace" font-size="13">lisi@example.com</text>
  <text x="600" y="319" fill="#f1f5f9" font-family="Inter, sans-serif" font-size="13">李四</text>
  <rect x="760" y="304" width="56" height="22" rx="4" fill="#22c55e" opacity="0.2"/>
  <text x="788" y="320" text-anchor="middle" fill="#22c55e" font-family="Inter, sans-serif" font-size="11">active</text>
  <text x="900" y="319" fill="#64748b" font-family="JetBrains Mono, monospace" font-size="12">2024-02-01 11:45:33</text>
  
  <rect x="296" y="336" width="1080" height="44" fill="#0f172a"/>
  <rect x="296" y="379" width="1080" height="1" fill="#334155"/>
  <text x="320" y="363" fill="#f1f5f9" font-family="JetBrains Mono, monospace" font-size="13">3</text>
  <text x="400" y="363" fill="#3b82f6" font-family="JetBrains Mono, monospace" font-size="13">wangwu@example.com</text>
  <text x="600" y="363" fill="#f1f5f9" font-family="Inter, sans-serif" font-size="13">王五</text>
  <rect x="760" y="348" width="62" height="22" rx="4" fill="#ef4444" opacity="0.2"/>
  <text x="791" y="364" text-anchor="middle" fill="#ef4444" font-family="Inter, sans-serif" font-size="11">inactive</text>
  <text x="900" y="363" fill="#64748b" font-family="JetBrains Mono, monospace" font-size="12">2024-02-10 16:20:45</text>
  
  <rect x="296" y="380" width="1080" height="44" fill="#0f172a"/>
  <rect x="296" y="423" width="1080" height="1" fill="#334155"/>
  <text x="320" y="407" fill="#f1f5f9" font-family="JetBrains Mono, monospace" font-size="13">4</text>
  <text x="400" y="407" fill="#3b82f6" font-family="JetBrains Mono, monospace" font-size="13">zhaoliu@example.com</text>
  <text x="600" y="407" fill="#f1f5f9" font-family="Inter, sans-serif" font-size="13">赵六</text>
  <rect x="760" y="392" width="56" height="22" rx="4" fill="#22c55e" opacity="0.2"/>
  <text x="788" y="408" text-anchor="middle" fill="#22c55e" font-family="Inter, sans-serif" font-size="11">active</text>
  <text x="900" y="407" fill="#64748b" font-family="JetBrains Mono, monospace" font-size="12">2024-02-15 08:55:12</text>
  
  <rect x="296" y="424" width="1080" height="44" fill="#0f172a"/>
  <rect x="296" y="467" width="1080" height="1" fill="#334155"/>
  <text x="320" y="451" fill="#f1f5f9" font-family="JetBrains Mono, monospace" font-size="13">5</text>
  <text x="400" y="451" fill="#3b82f6" font-family="JetBrains Mono, monospace" font-size="13">sunqi@example.com</text>
  <text x="600" y="451" fill="#f1f5f9" font-family="Inter, sans-serif" font-size="13">孙七</text>
  <rect x="760" y="436" width="62" height="22" rx="4" fill="#fbbf24" opacity="0.2"/>
  <text x="791" y="452" text-anchor="middle" fill="#fbbf24" font-family="Inter, sans-serif" font-size="11">pending</text>
  <text x="900" y="451" fill="#64748b" font-family="JetBrains Mono, monospace" font-size="12">2024-02-20 13:10:55</text>
  
  <!-- 更多行... -->
  <text x="320" y="520" fill="#64748b" font-family="Inter, sans-serif" font-size="12">...</text>
  
  <!-- 分页 -->
  <rect y="820" width="1400" height="40" fill="#1e293b"/>
  <rect y="820" width="1400" height="1" fill="#334155"/>
  
  <!-- 分页按钮 -->
  <rect x="1200" y="828" width="32" height="24" rx="4" fill="#334155"/>
  <text x="1216" y="845" text-anchor="middle" fill="#64748b" font-family="Inter, sans-serif" font-size="10">‹</text>
  
  <rect x="1240" y="828" width="32" height="24" rx="4" fill="#3b82f6"/>
  <text x="1256" y="845" text-anchor="middle" fill="#ffffff" font-family="Inter, sans-serif" font-size="11">1</text>
  
  <rect x="1280" y="828" width="32" height="24" rx="4" fill="#0f172a" stroke="#334155" stroke-width="1"/>
  <text x="1296" y="845" text-anchor="middle" fill="#94a3b8" font-family="Inter, sans-serif" font-size="11">2</text>
  
  <rect x="1320" y="828" width="32" height="24" rx="4" fill="#0f172a" stroke="#334155" stroke-width="1"/>
  <text x="1336" y="845" text-anchor="middle" fill="#94a3b8" font-family="Inter, sans-serif" font-size="11">3</text>
  
  <rect x="1360" y="828" width="32" height="24" rx="4" fill="#0f172a" stroke="#334155" stroke-width="1"/>
  <text x="1376" y="845" text-anchor="middle" fill="#64748b" font-family="Inter, sans-serif" font-size="10">›</text>
  
  <!-- 状态栏 -->
  <rect y="860" width="1400" height="40" fill="#1e293b"/>
  <rect y="860" width="1400" height="1" fill="#334155"/>
  <circle cx="32" cy="880" r="4" fill="#22c55e"/>
  <text x="48" y="885" fill="#94a3b8" font-family="Inter, sans-serif" font-size="12">已连接</text>
  <text x="600" y="885" text-anchor="middle" fill="#64748b" font-family="Inter, sans-serif" font-size="12">users 表 · 双击单元格编辑</text>
</svg>