<?xml version="1.0" encoding="UTF-8"?>
<svg xmlns="http://www.w3.org/2000/svg" viewBox="0 0 1400 900" width="1400" height="900">
  <defs>
    <filter id="shadow" x="-20%" y="-20%" width="140%" height="140%">
      <feDropShadow dx="0" dy="2" stdDeviation="4" flood-color="#000" flood-opacity="0.2"/>
    </filter>
  </defs>
  
  <!-- 背景 -->
  <rect width="1400" height="900" fill="#0f172a"/>
  
  <!-- 标题栏 -->
  <rect width="1400" height="40" fill="#1e293b"/>
  <circle cx="20" cy="20" r="6" fill="#ef4444"/>
  <circle cx="40" cy="20" r="6" fill="#fbbf24"/>
  <circle cx="60" cy="20" r="6" fill="#22c55e"/>
  <text x="600" y="25" text-anchor="middle" fill="#94a3b8" font-family="Inter, sans-serif" font-size="13">查询历史 - myapp_production - DataZen</text>
  
  <!-- 工具栏 -->
  <rect y="40" width="1400" height="48" fill="#1e293b"/>
  <rect y="87" width="1400" height="1" fill="#334155"/>
  
  <!-- 新建查询 -->
  <rect x="16" y="48" width="100" height="32" rx="6" fill="#3b82f6" filter="url(#shadow)"/>
  <text x="66" y="69" text-anchor="middle" fill="#ffffff" font-family="Inter, sans-serif" font-size="12" font-weight="500">+ 新建查询</text>
  
  <!-- 搜索框 -->
  <rect x="132" y="48" width="300" height="32" rx="6" fill="#0f172a" stroke="#334155" stroke-width="1"/>
  <text x="156" y="69" fill="#64748b" font-family="Inter, sans-serif" font-size="12">搜索历史记录...</text>
  <circle cx="144" cy="64" r="5" fill="none" stroke="#64748b" stroke-width="1.5"/>
  <line x1="147" y1="67" x2="151" y2="71" stroke="#64748b" stroke-width="1.5"/>
  
  <!-- 筛选按钮 -->
  <rect x="450" y="48" width="80" height="32" rx="6" fill="#0f172a" stroke="#334155" stroke-width="1"/>
  <text x="490" y="69" text-anchor="middle" fill="#94a3b8" font-family="Inter, sans-serif" font-size="12">筛选</text>
  
  <!-- 清空历史 -->
  <rect x="550" y="48" width="100" height="32" rx="6" fill="#0f172a" stroke="#334155" stroke-width="1"/>
  <text x="600" y="69" text-anchor="middle" fill="#ef4444" font-family="Inter, sans-serif" font-size="12">清空历史</text>
  
  <!-- 历史记录侧边栏 -->
  <rect y="88" width="320" height="812" fill="#1e293b"/>
  <rect x="320" y="88" width="1" height="812" fill="#334155"/>
  
  <!-- 今天 -->
  <text x="24" y="120" fill="#64748b" font-family="Inter, sans-serif" font-size="11" font-weight="600" letter-spacing="0.5">今天</text>
  
  <!-- 历史记录项 -->
  <rect x="8" y="132" width="304" height="72" rx="6" fill="#334155"/>
  <text x="24" y="156" fill="#f1f5f9" font-family="Inter, sans-serif" font-size="12" font-weight="500">SELECT * FROM users WHERE...</text>
  <text x="24" y="176" fill="#64748b" font-family="Inter, sans-serif" font-size="11">14:32:25 · 156 行 · 23.5ms</text>
  <rect x="264" y="144" width="32" height="20" rx="4" fill="#22c55e" opacity="0.2"/>
  <text x="280" y="158" text-anchor="middle" fill="#22c55e" font-family="Inter, sans-serif" font-size="9">成功</text>
  
  <rect x="8" y="212" width="304" height="72" rx="6" fill="transparent" stroke="#334155" stroke-width="1"/>
  <text x="24" y="236" fill="#f1f5f9" font-family="Inter, sans-serif" font-size="12">UPDATE users SET status =...</text>
  <text x="24" y="256" fill="#64748b" font-family="Inter, sans-serif" font-size="11">13:45:10 · 影响 23 行 · 45.2ms</text>
  <rect x="264" y="224" width="32" height="20" rx="4" fill="#22c55e" opacity="0.2"/>
  <text x="280" y="238" text-anchor="middle" fill="#22c55e" font-family="Inter, sans-serif" font-size="9">成功</text>
  
  <rect x="8" y="292" width="304" height="72" rx="6" fill="transparent" stroke="#334155" stroke-width="1"/>
  <text x="24" y="316" fill="#f1f5f9" font-family="Inter, sans-serif" font-size="12">DELETE FROM logs WHERE...</text>
  <text x="24" y="336" fill="#64748b" font-family="Inter, sans-serif" font-size="11">11:20:33 · 错误 · 2.1ms</text>
  <rect x="264" y="304" width="32" height="20" rx="4" fill="#ef4444" opacity="0.2"/>
  <text x="280" y="318" text-anchor="middle" fill="#ef4444" font-family="Inter, sans-serif" font-size="9">失败</text>
  
  <!-- 昨天 -->
  <text x="24" y="392" fill="#64748b" font-family="Inter, sans-serif" font-size="11" font-weight="600" letter-spacing="0.5">昨天</text>
  
  <rect x="8" y="404" width="304" height="72" rx="6" fill="transparent" stroke="#334155" stroke-width="1"/>
  <text x="24" y="428" fill="#f1f5f9" font-family="Inter, sans-serif" font-size="12">SELECT u.*, COUNT(p.id)...</text>
  <text x="24" y="448" fill="#64748b" font-family="Inter, sans-serif" font-size="11">18:55:42 · 10 行 · 156.7ms</text>
  <rect x="264" y="416" width="32" height="20" rx="4" fill="#22c55e" opacity="0.2"/>
  <text x="280" y="430" text-anchor="middle" fill="#22c55e" font-family="Inter, sans-serif" font-size="9">成功</text>
  
  <rect x="8" y="484" width="304" height="72" rx="6" fill="transparent" stroke="#334155" stroke-width="1"/>
  <text x="24" y="508" fill="#f1f5f9" font-family="Inter, sans-serif" font-size="12">INSERT INTO users (name...</text>
  <text x="24" y="528" fill="#64748b" font-family="Inter, sans-serif" font-size="11">16:30:15 · 影响 1 行 · 8.3ms</text>
  <rect x="264" y="496" width="32" height="20" rx="4" fill="#22c55e" opacity="0.2"/>
  <text x="280" y="510" text-anchor="middle" fill="#22c55e" font-family="Inter, sans-serif" font-size="9">成功</text>
  
  <!-- 加载更多 -->
  <text x="160" y="600" text-anchor="middle" fill="#3b82f6" font-family="Inter, sans-serif" font-size="12">加载更多历史...</text>
  
  <!-- 主内容区 - 选中历史详情 -->
  <rect x="344" y="104" width="1040" height="780" rx="8" fill="#0f172a" stroke="#334155" stroke-width="1"/>
  
  <!-- 历史详情标题 -->
  <text x="360" y="136" fill="#f1f5f9" font-family="Inter, sans-serif" font-size="16" font-weight="600">查询详情</text>
  
  <!-- 执行时间 -->
  <text x="1144" y="136" fill="#64748b" font-family="Inter, sans-serif" font-size="12">今天 14:32:25</text>
  
  <!-- SQL代码区 -->
  <rect x="360" y="152" width="1008" height="120" rx="8" fill="#1e293b"/>
  
  <!-- SQL代码 -->
  <text x="376" y="184" fill="#c084fc" font-family="JetBrains Mono, monospace" font-size="13">SELECT</text>
  <text x="440" y="184" fill="#f1f5f9" font-family="JetBrains Mono, monospace" font-size="13">*</text>
  <text x="360" y="208" fill="#c084fc" font-family="JetBrains Mono, monospace" font-size="13">FROM</text>
  <text x="408" y="208" fill="#22c55e" font-family="JetBrains Mono, monospace" font-size="13">users</text>
  <text x="360" y="232" fill="#c084fc" font-family="JetBrains Mono, monospace" font-size="13">WHERE</text>
  <text x="416" y="232" fill="#f1f5f9" font-family="JetBrains Mono, monospace" font-size="13">status = 'active'</text>
  <text x="360" y="256" fill="#c084fc" font-family="JetBrains Mono, monospace" font-size="13">ORDER</text>
  <text x="416" y="256" fill="#c084fc" font-family="JetBrains Mono, monospace" font-size="13">BY</text>
  <text x="440" y="256" fill="#f1f5f9" font-family="JetBrains Mono, monospace" font-size="13">created_at DESC;</text>
  
  <!-- 操作按钮 -->
  <rect x="360" y="288" width="120" height="36" rx="6" fill="#3b82f6"/>
  <text x="420" y="311" text-anchor="middle" fill="#ffffff" font-family="Inter, sans-serif" font-size="13" font-weight="500">重新执行</text>
  
  <rect x="496" y="288" width="100" height="36" rx="6" fill="#0f172a" stroke="#334155" stroke-width="1"/>
  <text x="546" y="311" text-anchor="middle" fill="#94a3b8" font-family="Inter, sans-serif" font-size="13">复制 SQL</text>
  
  <rect x="612" y="288" width="100" height="36" rx="6" fill="#0f172a" stroke="#334155" stroke-width="1"/>
  <text x="662" y="311" text-anchor="middle" fill="#94a3b8" font-family="Inter, sans-serif" font-size="13">收藏</text>
  
  <rect x="728" y="288" width="100" height="36" rx="6" fill="#0f172a" stroke="#334155" stroke-width="1"/>
  <text x="778" y="311" text-anchor="middle" fill="#94a3b8" font-family="Inter, sans-serif" font-size="13">编辑</text>
  
  <!-- 执行统计 -->
  <rect x="360" y="340" width="500" height="80" rx="8" fill="#1e293b"/>
  
  <text x="376" y="372" fill="#64748b" font-family="Inter, sans-serif" font-size="12">执行统计</text>
  
  <text x="376" y="400" fill="#94a3b8" font-family="Inter, sans-serif" font-size="12">返回行数:</text>
  <text x="468" y="400" fill="#f1f5f9" font-family="Inter, sans-serif" font-size="12" font-weight="500">156</text>
  
  <text x="540" y="400" fill="#94a3b8" font-family="Inter, sans-serif" font-size="12">执行时间:</text>
  <text x="624" y="400" fill="#f1f5f9" font-family="Inter, sans-serif" font-size="12" font-weight="500">23.5ms</text>
  
  <text x="720" y="400" fill="#94a3b8" font-family="Inter, sans-serif" font-size="12">扫描行数:</text>
  <text x="800" y="400" fill="#f1f5f9" font-family="Inter, sans-serif" font-size="12" font-weight="500">1,245</text>
  
  <!-- 结果预览 -->
  <text x="360" y="452" fill="#f1f5f9" font-family="Inter, sans-serif" font-size="14" font-weight="600">结果预览</text>
  
  <rect x="360" y="468" width="1008" height="40" fill="#1e293b"/>
  <rect x="360" y="507" width="1008" height="1" fill="#334155"/>
  
  <text x="376" y="495" fill="#94a3b8" font-family="Inter, sans-serif" font-size="12" font-weight="500">id</text>
  <text x="440" y="495" fill="#94a3b8" font-family="Inter, sans-serif" font-size="12" font-weight="500">name</text>
  <text x="560" y="495" fill="#94a3b8" font-family="Inter, sans-serif" font-size="12" font-weight="500">email</text>
  <text x="760" y="495" fill="#94a3b8" font-family="Inter, sans-serif" font-size="12" font-weight="500">status</text>
  <text x="880" y="495" fill="#94a3b8" font-family="Inter, sans-serif" font-size="12" font-weight="500">created_at</text>
  
  <!-- 数据行 -->
  <rect x="360" y="508" width="1008" height="36" fill="#0f172a"/>
  <rect x="360" y="543" width="1008" height="1" fill="#334155"/>
  <text x="376" y="531" fill="#f1f5f9" font-family="JetBrains Mono, monospace" font-size="12">1</text>
  <text x="440" y="531" fill="#f1f5f9" font-family="Inter, sans-serif" font-size="12">张三</text>
  <text x="560" y="531" fill="#3b82f6" font-family="JetBrains Mono, monospace" font-size="12">zhangsan@example.com</text>
  <rect x="760" y="516" width="56" height="20" rx="4" fill="#22c55e" opacity="0.2"/>
  <text x="788" y="531" text-anchor="middle" fill="#22c55e" font-family="Inter, sans-serif" font-size="10">active</text>
  <text x="880" y="531" fill="#64748b" font-family="JetBrains Mono, monospace" font-size="11">2024-01-15</text>
  
  <rect x="360" y="544" width="1008" height="36" fill="#0f172a"/>
  <rect x="360" y="579" width="1008" height="1" fill="#334155"/>
  <text x="376" y="567" fill="#f1f5f9" font-family="JetBrains Mono, monospace" font-size="12">2</text>
  <text x="440" y="567" fill="#f1f5f9" font-family="Inter, sans-serif" font-size="12">李四</text>
  <text x="560" y="567" fill="#3b82f6" font-family="JetBrains Mono, monospace" font-size="12">lisi@example.com</text>
  <rect x="760" y="552" width="56" height="20" rx="4" fill="#22c55e" opacity="0.2"/>
  <text x="788" y="567" text-anchor="middle" fill="#22c55e" font-family="Inter, sans-serif" font-size="10">active</text>
  <text x="880" y="567" fill="#64748b" font-family="JetBrains Mono, monospace" font-size="11">2024-02-01</text>
  
  <rect x="360" y="580" width="1008" height="36" fill="#0f172a"/>
  <rect x="360" y="615" width="1008" height="1" fill="#334155"/>
  <text x="376" y="603" fill="#f1f5f9" font-family="JetBrains Mono, monospace" font-size="12">3</text>
  <text x="440" y="603" fill="#f1f5f9" font-family="Inter, sans-serif" font-size="12">王五</text>
  <text x="560" y="603" fill="#3b82f6" font-family="JetBrains Mono, monospace" font-size="12">wangwu@example.com</text>
  <rect x="760" y="588" width="56" height="20" rx="4" fill="#22c55e" opacity="0.2"/>
  <text x="788" y="603" text-anchor="middle" fill="#22c55e" font-family="Inter, sans-serif" font-size="10">active</text>
  <text x="880" y="603" fill="#64748b" font-family="JetBrains Mono, monospace" font-size="11">2024-02-10</text>
  
  <!-- 分页 -->
  <text x="360" y="672" fill="#64748b" font-family="Inter, sans-serif" font-size="12">显示 1-3 / 156 行</text>
  
  <!-- 状态栏 -->
  <rect y="852" width="1400" height="48" fill="#1e293b"/>
  <rect y="852" width="1400" height="1" fill="#334155"/>
  <text x="24" y="880" fill="#64748b" font-family="Inter, sans-serif" font-size="12">共 156 条历史记录</text>
  <text x="600" y="880" text-anchor="middle" fill="#64748b" font-family="Inter, sans-serif" font-size="12">历史记录保留最近 1000 条</text>
</svg>