<?xml version="1.0" encoding="UTF-8"?>
<svg xmlns="http://www.w3.org/2000/svg" viewBox="0 0 1400 900" width="1400" height="900">
  <defs>
    <filter id="shadow" x="-20%" y="-20%" width="140%" height="140%">
      <feDropShadow dx="0" dy="2" stdDeviation="4" flood-color="#000" flood-opacity="0.2"/>
    </filter>
    <linearGradient id="editHighlight" x1="0%" y1="0%" x2="0%" y2="100%">
      <stop offset="0%" style="stop-color:#3b82f6" stop-opacity="0.1"/>
      <stop offset="100%" style="stop-color:#3b82f6" stop-opacity="0.05"/>
    </linearGradient>
  </defs>
  
  <!-- 背景 -->
  <rect width="1400" height="900" fill="#0f172a"/>
  
  <!-- 标题栏 -->
  <rect width="1400" height="40" fill="#1e293b"/>
  <circle cx="20" cy="20" r="6" fill="#ef4444"/>
  <circle cx="40" cy="20" r="6" fill="#fbbf24"/>
  <circle cx="60" cy="20" r="6" fill="#22c55e"/>
  <circle cx="100" cy="20" r="4" fill="#22c55e"/>
  <text x="112" y="25" fill="#94a3b8" font-family="Inter, sans-serif" font-size="12">主数据库</text>
  <text x="600" y="25" text-anchor="middle" fill="#94a3b8" font-family="Inter, sans-serif" font-size="13">users - 数据编辑 - DataZen</text>
  
  <!-- 工具栏 -->
  <rect y="40" width="1400" height="48" fill="#1e293b"/>
  <rect y="87" width="1400" height="1" fill="#334155"/>
  
  <!-- 刷新按钮 -->
  <rect x="16" y="48" width="36" height="32" rx="6" fill="#0f172a" stroke="#334155" stroke-width="1"/>
  <path d="M34 64 A6 6 0 1 1 34 52" fill="none" stroke="#94a3b8" stroke-width="1.5" stroke-linecap="round"/>
  <path d="M34 52 L38 56 L30 56" fill="none" stroke="#94a3b8" stroke-width="1.5" stroke-linecap="round" stroke-linejoin="round"/>
  
  <!-- 新增行按钮 -->
  <rect x="60" y="48" width="80" height="32" rx="6" fill="#3b82f6" filter="url(#shadow)"/>
  <text x="100" y="69" text-anchor="middle" fill="#ffffff" font-family="Inter, sans-serif" font-size="12" font-weight="500">+ 新增</text>
  
  <!-- 删除按钮 -->
  <rect x="152" y="48" width="80" height="32" rx="6" fill="#0f172a" stroke="#334155" stroke-width="1"/>
  <text x="192" y="69" text-anchor="middle" fill="#ef4444" font-family="Inter, sans-serif" font-size="12">删除</text>
  
  <!-- 分隔线 -->
  <rect x="248" y="52" width="1" height="24" fill="#334155"/>
  
  <!-- 撤销 -->
  <rect x="264" y="48" width="60" height="32" rx="6" fill="#0f172a" stroke="#334155" stroke-width="1"/>
  <text x="294" y="69" text-anchor="middle" fill="#64748b" font-family="Inter, sans-serif" font-size="12">撤销</text>
  
  <!-- 重做 -->
  <rect x="336" y="48" width="60" height="32" rx="6" fill="#0f172a" stroke="#334155" stroke-width="1"/>
  <text x="366" y="69" text-anchor="middle" fill="#64748b" font-family="Inter, sans-serif" font-size="12">重做</text>
  
  <!-- 分隔线 -->
  <rect x="412" y="52" width="1" height="24" fill="#334155"/>
  
  <!-- 筛选按钮 -->
  <rect x="428" y="48" width="80" height="32" rx="6" fill="#0f172a" stroke="#f59e0b" stroke-width="1"/>
  <text x="468" y="69" text-anchor="middle" fill="#f59e0b" font-family="Inter, sans-serif" font-size="12">筛选</text>
  
  <!-- 排序按钮 -->
  <rect x="520" y="48" width="60" height="32" rx="6" fill="#0f172a" stroke="#334155" stroke-width="1"/>
  <text x="550" y="69" text-anchor="middle" fill="#94a3b8" font-family="Inter, sans-serif" font-size="12">排序</text>
  
  <!-- 列设置 -->
  <rect x="592" y="48" width="80" height="32" rx="6" fill="#0f172a" stroke="#334155" stroke-width="1"/>
  <text x="632" y="69" text-anchor="middle" fill="#94a3b8" font-family="Inter, sans-serif" font-size="12">列设置</text>
  
  <!-- 分隔线 -->
  <rect x="688" y="52" width="1" height="24" fill="#334155"/>
  
  <!-- 导入 -->
  <rect x="704" y="48" width="60" height="32" rx="6" fill="#0f172a" stroke="#334155" stroke-width="1"/>
  <text x="734" y="69" text-anchor="middle" fill="#94a3b8" font-family="Inter, sans-serif" font-size="12">导入</text>
  
  <!-- 导出 -->
  <rect x="776" y="48" width="60" height="32" rx="6" fill="#0f172a" stroke="#334155" stroke-width="1"/>
  <text x="806" y="69" text-anchor="middle" fill="#94a3b8" font-family="Inter, sans-serif" font-size="12">导出</text>
  
  <!-- 右侧工具 -->
  <rect x="1340" y="48" width="36" height="32" rx="6" fill="#0f172a" stroke="#334155" stroke-width="1"/>
  <circle cx="1358" cy="64" r="8" fill="none" stroke="#94a3b8" stroke-width="1.5"/>
  <circle cx="1358" cy="64" r="2" fill="#94a3b8"/>
  
  <!-- 筛选条件栏 -->
  <rect x="16" y="96" width="1368" height="40" rx="6" fill="#1e293b"/>
  <text x="32" y="121" fill="#f59e0b" font-family="Inter, sans-serif" font-size="12">筛选条件:</text>
  <rect x="120" y="104" width="120" height="24" rx="4" fill="#0f172a" stroke="#f59e0b" stroke-width="1"/>
  <text x="132" y="121" fill="#f1f5f9" font-family="Inter, sans-serif" font-size="12">status</text>
  <text x="180" y="121" fill="#f59e0b" font-family="Inter, sans-serif" font-size="12">=</text>
  <text x="196" y="121" fill="#22c55e" font-family="JetBrains Mono, monospace" font-size="12">'active'</text>
  
  <rect x="256" y="104" width="120" height="24" rx="4" fill="#0f172a" stroke="#334155" stroke-width="1"/>
  <text x="268" y="121" fill="#f1f5f9" font-family="Inter, sans-serif" font-size="12">created_at</text>
  <text x="348" y="121" fill="#f59e0b" font-family="Inter, sans-serif" font-size="12">></text>
  <text x="364" y="121" fill="#8b5cf6" font-family="JetBrains Mono, monospace" font-size="12">'2024-01-01'</text>
  
  <!-- 清除筛选 -->
  <rect x="392" y="104" width="60" height="24" rx="4" fill="#334155"/>
  <text x="422" y="121" text-anchor="middle" fill="#94a3b8" font-family="Inter, sans-serif" font-size="11">清除</text>
  
  <!-- 数据表格 -->
  <rect x="16" y="144" width="1368" height="40" fill="#1e293b"/>
  <rect x="16" y="183" width="1368" height="1" fill="#334155"/>
  
  <!-- 表头 -->
  <!-- 复选框列 -->
  <rect x="16" y="152" width="16" height="16" rx="2" fill="none" stroke="#64748b" stroke-width="1"/>
  
  <!-- 列标题 -->
  <text x="56" y="172" fill="#94a3b8" font-family="Inter, sans-serif" font-size="12" font-weight="500">id</text>
  <path d="M72 160 L76 164 L80 160" fill="none" stroke="#3b82f6" stroke-width="1"/>
  
  <text x="144" y="172" fill="#94a3b8" font-family="Inter, sans-serif" font-size="12" font-weight="500">email</text>
  <text x="384" y="172" fill="#94a3b8" font-family="Inter, sans-serif" font-size="12" font-weight="500">name</text>
  <text x="552" y="172" fill="#94a3b8" font-family="Inter, sans-serif" font-size="12" font-weight="500">status</text>
  <text x="700" y="172" fill="#94a3b8" font-family="Inter, sans-serif" font-size="12" font-weight="500">created_at</text>
  <text x="920" y="172" fill="#94a3b8" font-family="Inter, sans-serif" font-size="12" font-weight="500">updated_at</text>
  
  <!-- 筛选图标 -->
  <circle cx="124" cy="164" r="4" fill="none" stroke="#64748b" stroke-width="1"/>
  <circle cx="372" cy="164" r="4" fill="none" stroke="#64748b" stroke-width="1"/>
  <circle cx="540" cy="164" r="4" fill="none" stroke="#f59e0b" stroke-width="1"/>
  <circle cx="688" cy="164" r="4" fill="none" stroke="#f59e0b" stroke-width="1"/>
  <circle cx="908" cy="164" r="4" fill="none" stroke="#64748b" stroke-width="1"/>
  
  <!-- 数据行 -->
  <!-- 行1 - 正常 -->
  <rect x="16" y="184" width="1368" height="48" fill="#0f172a"/>
  <rect x="16" y="231" width="1368" height="1" fill="#334155"/>
  <rect x="24" y="196" width="16" height="16" rx="2" fill="none" stroke="#64748b" stroke-width="1"/>
  <text x="56" y="213" fill="#f1f5f9" font-family="JetBrains Mono, monospace" font-size="13">1</text>
  <text x="144" y="213" fill="#3b82f6" font-family="JetBrains Mono, monospace" font-size="13">zhangsan@example.com</text>
  <text x="384" y="213" fill="#f1f5f9" font-family="Inter, sans-serif" font-size="13">张三</text>
  <rect x="552" y="198" width="56" height="22" rx="4" fill="#22c55e" opacity="0.2"/>
  <text x="580" y="214" text-anchor="middle" fill="#22c55e" font-family="Inter, sans-serif" font-size="11">active</text>
  <text x="700" y="213" fill="#64748b" font-family="JetBrains Mono, monospace" font-size="12">2024-01-15 09:30:22</text>
  <text x="920" y="213" fill="#64748b" font-family="JetBrains Mono, monospace" font-size="12">2024-03-20 14:22:11</text>
  
  <!-- 行2 - 正常 -->
  <rect x="16" y="232" width="1368" height="48" fill="#0f172a"/>
  <rect x="16" y="279" width="1368" height="1" fill="#334155"/>
  <rect x="24" y="244" width="16" height="16" rx="2" fill="none" stroke="#64748b" stroke-width="1"/>
  <text x="56" y="261" fill="#f1f5f9" font-family="JetBrains Mono, monospace" font-size="13">2</text>
  <text x="144" y="261" fill="#3b82f6" font-family="JetBrains Mono, monospace" font-size="13">lisi@example.com</text>
  <text x="384" y="261" fill="#f1f5f9" font-family="Inter, sans-serif" font-size="13">李四</text>
  <rect x="552" y="246" width="56" height="22" rx="4" fill="#22c55e" opacity="0.2"/>
  <text x="580" y="262" text-anchor="middle" fill="#22c55e" font-family="Inter, sans-serif" font-size="11">active</text>
  <text x="700" y="261" fill="#64748b" font-family="JetBrains Mono, monospace" font-size="12">2024-02-01 11:45:33</text>
  <text x="920" y="261" fill="#64748b" font-family="JetBrains Mono, monospace" font-size="12">2024-03-18 09:15:44</text>
  
  <!-- 行3 - 选中状态 -->
  <rect x="16" y="280" width="1368" height="48" fill="#3b82f6" opacity="0.1"/>
  <rect x="16" y="327" width="1368" height="1" fill="#334155"/>
  <rect x="24" y="292" width="16" height="16" rx="2" fill="#3b82f6"/>
  <path d="M28 300 L32 304 L38 296" fill="none" stroke="#ffffff" stroke-width="2" stroke-linecap="round" stroke-linejoin="round"/>
  <text x="56" y="309" fill="#f1f5f9" font-family="JetBrains Mono, monospace" font-size="13">3</text>
  <text x="144" y="309" fill="#3b82f6" font-family="JetBrains Mono, monospace" font-size="13">wangwu@example.com</text>
  <text x="384" y="309" fill="#f1f5f9" font-family="Inter, sans-serif" font-size="13">王五</text>
  <rect x="552" y="294" width="56" height="22" rx="4" fill="#22c55e" opacity="0.2"/>
  <text x="580" y="310" text-anchor="middle" fill="#22c55e" font-family="Inter, sans-serif" font-size="11">active</text>
  <text x="700" y="309" fill="#64748b" font-family="JetBrains Mono, monospace" font-size="12">2024-02-10 16:20:45</text>
  <text x="920" y="309" fill="#64748b" font-family="JetBrains Mono, monospace" font-size="12">2024-03-15 11:30:22</text>
  
  <!-- 行4 - 编辑中 -->
  <rect x="16" y="328" width="1368" height="48" fill="url(#editHighlight)"/>
  <rect x="16" y="375" width="1368" height="1" fill="#334155"/>
  <rect x="24" y="340" width="16" height="16" rx="2" fill="none" stroke="#64748b" stroke-width="1"/>
  <text x="56" y="357" fill="#f1f5f9" font-family="JetBrains Mono, monospace" font-size="13">4</text>
  <text x="144" y="357" fill="#3b82f6" font-family="JetBrains Mono, monospace" font-size="13">zhaoliu@example.com</text>
  <!-- 编辑中的单元格 -->
  <rect x="380" y="336" width="140" height="32" rx="4" fill="#0f172a" stroke="#3b82f6" stroke-width="2"/>
  <text x="392" y="357" fill="#f1f5f9" font-family="Inter, sans-serif" font-size="13">赵六</text>
  <!-- 光标 -->
  <rect x="430" y="340" width="2" height="20" fill="#3b82f6">
    <animate attributeName="opacity" values="1;0;1" dur="1s" repeatCount="indefinite"/>
  </rect>
  <rect x="552" y="342" width="56" height="22" rx="4" fill="#fbbf24" opacity="0.2"/>
  <text x="580" y="358" text-anchor="middle" fill="#fbbf24" font-family="Inter, sans-serif" font-size="11">pending</text>
  <text x="700" y="357" fill="#64748b" font-family="JetBrains Mono, monospace" font-size="12">2024-02-15 08:55:12</text>
  <text x="920" y="357" fill="#64748b" font-family="JetBrains Mono, monospace" font-size="12">2024-03-10 16:45:33</text>
  
  <!-- 行5 - 正常 -->
  <rect x="16" y="376" width="1368" height="48" fill="#0f172a"/>
  <rect x="16" y="423" width="1368" height="1" fill="#334155"/>
  <rect x="24" y="388" width="16" height="16" rx="2" fill="none" stroke="#64748b" stroke-width="1"/>
  <text x="56" y="405" fill="#f1f5f9" font-family="JetBrains Mono, monospace" font-size="13">5</text>
  <text x="144" y="405" fill="#3b82f6" font-family="JetBrains Mono, monospace" font-size="13">sunqi@example.com</text>
  <text x="384" y="405" fill="#f1f5f9" font-family="Inter, sans-serif" font-size="13">孙七</text>
  <rect x="552" y="390" width="56" height="22" rx="4" fill="#22c55e" opacity="0.2"/>
  <text x="580" y="406" text-anchor="middle" fill="#22c55e" font-family="Inter, sans-serif" font-size="11">active</text>
  <text x="700" y="405" fill="#64748b" font-family="JetBrains Mono, monospace" font-size="12">2024-02-20 13:10:55</text>
  <text x="920" y="405" fill="#64748b" font-family="JetBrains Mono, monospace" font-size="12">2024-03-08 10:20:15</text>
  
  <!-- 行6 - 正常 -->
  <rect x="16" y="424" width="1368" height="48" fill="#0f172a"/>
  <rect x="16" y="471" width="1368" height="1" fill="#334155"/>
  <rect x="24" y="436" width="16" height="16" rx="2" fill="none" stroke="#64748b" stroke-width="1"/>
  <text x="56" y="453" fill="#f1f5f9" font-family="JetBrains Mono, monospace" font-size="13">6</text>
  <text x="144" y="453" fill="#3b82f6" font-family="JetBrains Mono, monospace" font-size="13">zhouba@example.com</text>
  <text x="384" y="453" fill="#f1f5f9" font-family="Inter, sans-serif" font-size="13">周八</text>
  <rect x="552" y="438" width="56" height="22" rx="4" fill="#22c55e" opacity="0.2"/>
  <text x="580" y="454" text-anchor="middle" fill="#22c55e" font-family="Inter, sans-serif" font-size="11">active</text>
  <text x="700" y="453" fill="#64748b" font-family="JetBrains Mono, monospace" font-size="12">2024-02-25 15:30:44</text>
  <text x="920" y="453" fill="#64748b" font-family="JetBrains Mono, monospace" font-size="12">2024-03-05 14:55:30</text>
  
  <!-- 行7 - inactive 状态 -->
  <rect x="16" y="472" width="1368" height="48" fill="#0f172a"/>
  <rect x="16" y="519" width="1368" height="1" fill="#334155"/>
  <rect x="24" y="484" width="16" height="16" rx="2" fill="none" stroke="#64748b" stroke-width="1"/>
  <text x="56" y="501" fill="#f1f5f9" font-family="JetBrains Mono, monospace" font-size="13">7</text>
  <text x="144" y="501" fill="#3b82f6" font-family="JetBrains Mono, monospace" font-size="13">wujiu@example.com</text>
  <text x="384" y="501" fill="#f1f5f9" font-family="Inter, sans-serif" font-size="13">吴九</text>
  <rect x="552" y="486" width="62" height="22" rx="4" fill="#ef4444" opacity="0.2"/>
  <text x="583" y="502" text-anchor="middle" fill="#ef4444" font-family="Inter, sans-serif" font-size="11">inactive</text>
  <text x="700" y="501" fill="#64748b" font-family="JetBrains Mono, monospace" font-size="12">2024-03-01 10:15:22</text>
  <text x="920" y="501" fill="#64748b" font-family="JetBrains Mono, monospace" font-size="12">2024-03-01 10:15:22</text>
  
  <!-- 行8 - 正常 -->
  <rect x="16" y="520" width="1368" height="48" fill="#0f172a"/>
  <rect x="16" y="567" width="1368" height="1" fill="#334155"/>
  <rect x="24" y="532" width="16" height="16" rx="2" fill="none" stroke="#64748b" stroke-width="1"/>
  <text x="56" y="549" fill="#f1f5f9" font-family="JetBrains Mono, monospace" font-size="13">8</text>
  <text x="144" y="549" fill="#3b82f6" font-family="JetBrains Mono, monospace" font-size="13">zhengshi@example.com</text>
  <text x="384" y="549" fill="#f1f5f9" font-family="Inter, sans-serif" font-size="13">郑十</text>
  <rect x="552" y="534" width="56" height="22" rx="4" fill="#22c55e" opacity="0.2"/>
  <text x="580" y="550" text-anchor="middle" fill="#22c55e" font-family="Inter, sans-serif" font-size="11">active</text>
  <text x="700" y="549" fill="#64748b" font-family="JetBrains Mono, monospace" font-size="12">2024-03-05 09:20:15</text>
  <text x="920" y="549" fill="#64748b" font-family="JetBrains Mono, monospace" font-size="12">2024-03-12 08:45:50</text>
  
  <!-- 行9 -->
  <rect x="16" y="568" width="1368" height="48" fill="#0f172a"/>
  <rect x="16" y="615" width="1368" height="1" fill="#334155"/>
  <rect x="24" y="580" width="16" height="16" rx="2" fill="none" stroke="#64748b" stroke-width="1"/>
  <text x="56" y="597" fill="#f1f5f9" font-family="JetBrains Mono, monospace" font-size="13">9</text>
  <text x="144" y="597" fill="#3b82f6" font-family="JetBrains Mono, monospace" font-size="13">qianyi@example.com</text>
  <text x="384" y="597" fill="#f1f5f9" font-family="Inter, sans-serif" font-size="13">钱一</text>
  <rect x="552" y="582" width="56" height="22" rx="4" fill="#22c55e" opacity="0.2"/>
  <text x="580" y="598" text-anchor="middle" fill="#22c55e" font-family="Inter, sans-serif" font-size="11">active</text>
  <text x="700" y="597" fill="#64748b" font-family="JetBrains Mono, monospace" font-size="12">2024-03-08 14:35:40</text>
  <text x="920" y="597" fill="#64748b" font-family="JetBrains Mono, monospace" font-size="12">2024-03-10 11:20:30</text>
  
  <!-- 行10 -->
  <rect x="16" y="616" width="1368" height="48" fill="#0f172a"/>
  <rect x="16" y="663" width="1368" height="1" fill="#334155"/>
  <rect x="24" y="628" width="16" height="16" rx="2" fill="none" stroke="#64748b" stroke-width="1"/>
  <text x="56" y="645" fill="#f1f5f9" font-family="JetBrains Mono, monospace" font-size="13">10</text>
  <text x="144" y="645" fill="#3b82f6" font-family="JetBrains Mono, monospace" font-size="13">suner@example.com</text>
  <text x="384" y="645" fill="#f1f5f9" font-family="Inter, sans-serif" font-size="13">孙二</text>
  <rect x="552" y="630" width="56" height="22" rx="4" fill="#22c55e" opacity="0.2"/>
  <text x="580" y="646" text-anchor="middle" fill="#22c55e" font-family="Inter, sans-serif" font-size="11">active</text>
  <text x="700" y="645" fill="#64748b" font-family="JetBrains Mono, monospace" font-size="12">2024-03-10 17:50:25</text>
  <text x="920" y="645" fill="#64748b" font-family="JetBrains Mono, monospace" font-size="12">2024-03-11 09:30:15</text>
  
  <!-- 底部信息栏 -->
  <rect y="720" width="1400" height="48" fill="#1e293b"/>
  <rect y="720" width="1400" height="1" fill="#334155"/>
  
  <!-- 编辑状态提示 -->
  <rect x="16" y="728" width="140" height="32" rx="6" fill="#fbbf24" opacity="0.2"/>
  <text x="32" y="749" fill="#fbbf24" font-family="Inter, sans-serif" font-size="12">● 编辑中</text>
  <text x="96" y="749" fill="#94a3b8" font-family="Inter, sans-serif" font-size="12">1 处更改</text>
  
  <!-- 分页信息 -->
  <text x="200" y="749" fill="#94a3b8" font-family="Inter, sans-serif" font-size="12">筛选后: 156 行</text>
  <text x="320" y="749" fill="#64748b" font-family="Inter, sans-serif" font-size="12">|</text>
  <text x="340" y="749" fill="#94a3b8" font-family="Inter, sans-serif" font-size="12">总计: 1,200,000 行</text>
  
  <!-- 提交按钮 -->
  <rect x="1140" y="728" width="100" height="32" rx="6" fill="#22c55e" filter="url(#shadow)"/>
  <text x="1190" y="749" text-anchor="middle" fill="#ffffff" font-family="Inter, sans-serif" font-size="12" font-weight="500">提交更改</text>
  
  <!-- 取消按钮 -->
  <rect x="1252" y="728" width="100" height="32" rx="6" fill="#0f172a" stroke="#334155" stroke-width="1"/>
  <text x="1302" y="749" text-anchor="middle" fill="#94a3b8" font-family="Inter, sans-serif" font-size="12">取消</text>
  
  <!-- 分页控制 -->
  <rect y="768" width="1400" height="48" fill="#1e293b"/>
  <rect y="768" width="1400" height="1" fill="#334155"/>
  
  <text x="16" y="796" fill="#94a3b8" font-family="Inter, sans-serif" font-size="12">显示 1-10 / 156 行</text>
  
  <!-- 分页按钮 -->
  <rect x="1200" y="780" width="32" height="24" rx="4" fill="#334155"/>
  <text x="1216" y="797" text-anchor="middle" fill="#64748b" font-family="Inter, sans-serif" font-size="10">‹</text>
  
  <rect x="1240" y="780" width="32" height="24" rx="4" fill="#3b82f6"/>
  <text x="1256" y="797" text-anchor="middle" fill="#ffffff" font-family="Inter, sans-serif" font-size="11">1</text>
  
  <rect x="1280" y="780" width="32" height="24" rx="4" fill="#0f172a" stroke="#334155" stroke-width="1"/>
  <text x="1296" y="797" text-anchor="middle" fill="#94a3b8" font-family="Inter, sans-serif" font-size="11">2</text>
  
  <rect x="1320" y="780" width="32" height="24" rx="4" fill="#0f172a" stroke="#334155" stroke-width="1"/>
  <text x="1336" y="797" text-anchor="middle" fill="#94a3b8" font-family="Inter, sans-serif" font-size="11">...</text>
  
  <rect x="1360" y="780" width="32" height="24" rx="4" fill="#0f172a" stroke="#334155" stroke-width="1"/>
  <text x="1376" y="797" text-anchor="middle" fill="#94a3b8" font-family="Inter, sans-serif" font-size="10">›</text>
  
  <!-- 状态栏 -->
  <rect y="852" width="1400" height="48" fill="#1e293b"/>
  <rect y="852" width="1400" height="1" fill="#334155"/>
  <circle cx="32" cy="876" r="4" fill="#22c55e"/>
  <text x="48" y="880" fill="#94a3b8" font-family="Inter, sans-serif" font-size="12">已连接</text>
  <text x="600" y="880" text-anchor="middle" fill="#64748b" font-family="Inter, sans-serif" font-size="12">users 表 | PostgreSQL 14.2 | prod-db.example.com:5432</text>
  <text x="1376" y="880" text-anchor="end" fill="#64748b" font-family="Inter, sans-serif" font-size="12">双击编辑 · Enter 确认 · Esc 取消</text>
</svg>